# xmcd
#
# Track frame offsets: 
#        150
#        28712
#        48137
#        75092
#        102037
#        127430
#        143847
#        163390
#        189222
#        211175
#
# Disc length: 2987 seconds
#
# Revision: 1
# Processed by: cddbd v1.5.2PL0 Copyright (c) Steve Scherf et al.
# Submitted via: ExactAudioCopy v0.90b4
#
DISCID=7e0ba90a
DTITLE=Lambchop - Nixon
DYEAR=2000
DGENRE=Alternative
TTITLE0=The Old Gold Shoe
TTITLE1=Grumpus
TTITLE2=You Masculine You
TTITLE3=Up With People
TTITLE4=Nashville Parent
TTITLE5=What Else Could It Be?
TTITLE6=The Distance From Her To There
TTITLE7=The Book I Haven't Read
TTITLE8=The Petrified Florist
TTITLE9=The Butcher Boy
EXTD=
EXTT0=
EXTT1=
EXTT2=
EXTT3=
EXTT4=
EXTT5=
EXTT6=
EXTT7=
EXTT8=
EXTT9=
PLAYORDER=
